REM Ripping Tool: trurip

FILE "CD Battle - Hikari no Yuusha-tachi (1993)(King)(JP).img" BINARY
  TRACK 01 AUDIO
    INDEX 01 00:00:00
  TRACK 02 MODE1/2352
    INDEX 00 00:44:65
    INDEX 01 00:47:65
  TRACK 03 AUDIO
    INDEX 00 00:56:24
    INDEX 01 00:58:24
  TRACK 04 AUDIO
    INDEX 01 02:22:30

REM DISC HASHES
REM CRC32 : 5ac38aef
REM MD5   : be5538a22602f80e5f05c11fe30ac494
REM SHA1  : 39a765b713b55b2ac6c4dedacf11a4f7e78d9908

REM Gap Append Method: Prev [crc32]
REM Trk 01: 290312e6
REM Trk 02: 3a3d6474
REM Trk 03: 962c4829
REM Trk 04: a66b14af

REM Gap Append Method: Prev [md5]
REM Trk 01: 7628df796c407a99fee1a675ddac56c3
REM Trk 02: 7a725ab917e73c9c18377b09578936d2
REM Trk 03: 2b0c5c0d81a8adcf668f8edad40370f9
REM Trk 04: a390ec39f4c87c3bcba38137582447b1

REM Gap Append Method: Prev [sha1]
REM Trk 01: bf12293f7b44bb60546b85c49977427cee5379f1
REM Trk 02: b566a69ad29ce98d0e9ac0e7d8653c82da714cb0
REM Trk 03: b28b9f985e026a26fe0b95ee50eac02a3f0a3e39
REM Trk 04: 4f7d88eb4dbe95a4ba7e9bc1f47941ed8c8fdc37

REM Gap Append Method: None [crc32]
REM Trk 01: e214f155
REM Trk 02: 377aebb9
REM Trk 03: 962c4829
REM Trk 04: a66b14af
REM Gap 02: 58fd8bb2
REM Gap 03: 7abe247f

REM Gap Append Method: None [md5]
REM Trk 01: d40c88eee64677e653d47a67c563ff0d
REM Trk 02: cda291a76d739e96ead3ff20024d074a
REM Trk 03: 2b0c5c0d81a8adcf668f8edad40370f9
REM Trk 04: a390ec39f4c87c3bcba38137582447b1
REM Gap 02: ac56fd9130812a6df37b0b2d2a561658
REM Gap 03: 9df204fbc98bb8965081cb30a89715fc

REM Gap Append Method: None [sha1]
REM Trk 01: 7dcb29851dae3c31ba3a831e4a976a2d7c618f62
REM Trk 02: 2f0df1e836cb859a147d2e7c39c859948f1e9a2d
REM Trk 03: b28b9f985e026a26fe0b95ee50eac02a3f0a3e39
REM Trk 04: 4f7d88eb4dbe95a4ba7e9bc1f47941ed8c8fdc37
REM Gap 02: 0540dd90a939e1b62025f5148a11224f38c7b903
REM Gap 03: cbe29e0bd725ef1194f8c47619dd42078e841de2

REM Gap Append Method: Next [crc32]
REM Trk 01: e214f155
REM Trk 02: 1b544e0a
REM Trk 03: 79ea6a2a
REM Trk 04: a66b14af

REM Gap Append Method: Next [md5]
REM Trk 01: d40c88eee64677e653d47a67c563ff0d
REM Trk 02: ddf18f9fe377f0e8521bb99f00b5c241
REM Trk 03: 108732d454467f1404019e18df41622e
REM Trk 04: a390ec39f4c87c3bcba38137582447b1

REM Gap Append Method: Next [sha1]
REM Trk 01: 7dcb29851dae3c31ba3a831e4a976a2d7c618f62
REM Trk 02: 49eb089ba19bdc04c4284e999ffe6bc6934d2af1
REM Trk 03: 9862c1b787c2ef3b2122ba6e43282972be1f4901
REM Trk 04: 4f7d88eb4dbe95a4ba7e9bc1f47941ed8c8fdc37

